<svg width="120" height="111" viewBox="0 0 120 111" fill="none" xmlns="http://www.w3.org/2000/svg">
<path d="M70.3179 45.3167V0.03125H21.3479V45.3167V90.6021H70.3179H119.288V45.3167H70.3179Z" fill="#FF9D00"/>
<path d="M100.278 110.031H0.337891V17.6106H51.3079V62.896H100.278V110.031ZM2.33789 108.181H98.2779V64.7455H49.3079V19.4601H2.33789V108.181Z" fill="#353550"/>
<path d="M80.5679 0.520752H77.5879V39.823H80.5679V0.520752Z" fill="#FFC200"/>
<path d="M88.1579 0.511719H85.1779V39.8139H88.1579V0.511719Z" fill="#FFC200"/>
<path d="M95.7378 0.520752H92.7578V39.823H95.7378V0.520752Z" fill="#FFC200"/>
<path d="M103.318 0.520752H100.338V39.823H103.318V0.520752Z" fill="#FFC200"/>
<path d="M110.898 0.511719H107.918V39.8139H110.898V0.511719Z" fill="#FFC200"/>
<path d="M118.388 0.520752H115.498V39.823H118.388V0.520752Z" fill="#FFC200"/>
</svg>
