<svg width="56" height="53" viewBox="0 0 56 53" fill="none" xmlns="http://www.w3.org/2000/svg">
<rect x="0.751953" y="0.043457" width="55" height="52.6087" rx="5.97826" fill="#A91F2F" fill-opacity="0.1"/>
<g clip-path="url(#clip0_11455_2940)">
<path d="M38.039 27.2685C38.089 26.8685 38.1265 26.4685 38.1265 26.0435C38.1265 25.6185 38.089 25.2185 38.039 24.8185L40.6765 22.756C40.914 22.5685 40.9765 22.231 40.8265 21.956L38.3265 17.631C38.214 17.431 38.0015 17.3185 37.7765 17.3185C37.7015 17.3185 37.6265 17.331 37.564 17.356L34.4515 18.606C33.8015 18.106 33.1015 17.6935 32.339 17.381L31.864 14.0685C31.8265 13.7685 31.564 13.5435 31.2515 13.5435H26.2515C25.939 13.5435 25.6765 13.7685 25.639 14.0685L25.164 17.381C24.4015 17.6935 23.7015 18.1185 23.0515 18.606L19.939 17.356C19.864 17.331 19.789 17.3185 19.714 17.3185C19.5015 17.3185 19.289 17.431 19.1765 17.631L16.6765 21.956C16.514 22.231 16.589 22.5685 16.8265 22.756L19.464 24.8185C19.414 25.2185 19.3765 25.631 19.3765 26.0435C19.3765 26.456 19.414 26.8685 19.464 27.2685L16.8265 29.331C16.589 29.5185 16.5265 29.856 16.6765 30.131L19.1765 34.456C19.289 34.656 19.5015 34.7685 19.7265 34.7685C19.8015 34.7685 19.8765 34.756 19.939 34.731L23.0515 33.481C23.7015 33.981 24.4015 34.3935 25.164 34.706L25.639 38.0185C25.6765 38.3185 25.939 38.5435 26.2515 38.5435H31.2515C31.564 38.5435 31.8265 38.3185 31.864 38.0185L32.339 34.706C33.1015 34.3935 33.8015 33.9685 34.4515 33.481L37.564 34.731C37.639 34.756 37.714 34.7685 37.789 34.7685C38.0015 34.7685 38.214 34.656 38.3265 34.456L40.8265 30.131C40.9765 29.856 40.914 29.5185 40.6765 29.331L38.039 27.2685ZM35.564 25.131C35.614 25.5185 35.6265 25.781 35.6265 26.0435C35.6265 26.306 35.6015 26.581 35.564 26.956L35.389 28.3685L36.5015 29.2435L37.8515 30.2935L36.9765 31.806L35.389 31.1685L34.089 30.6435L32.964 31.4935C32.4265 31.8935 31.914 32.1935 31.4015 32.406L30.0765 32.9435L29.8765 34.356L29.6265 36.0435H27.8765L27.639 34.356L27.439 32.9435L26.114 32.406C25.5765 32.181 25.0765 31.8935 24.5765 31.5185L23.439 30.6435L22.114 31.181L20.5265 31.8185L19.6515 30.306L21.0015 29.256L22.114 28.381L21.939 26.9685C21.9015 26.581 21.8765 26.2935 21.8765 26.0435C21.8765 25.7935 21.9015 25.506 21.939 25.131L22.114 23.7185L21.0015 22.8435L19.6515 21.7935L20.5265 20.281L22.114 20.9185L23.414 21.4435L24.539 20.5935C25.0765 20.1935 25.589 19.8935 26.1015 19.681L27.4265 19.1435L27.6265 17.731L27.8765 16.0435H29.614L29.8515 17.731L30.0515 19.1435L31.3765 19.681C31.914 19.906 32.414 20.1935 32.914 20.5685L34.0515 21.4435L35.3765 20.906L36.964 20.2685L37.839 21.781L36.5015 22.8435L35.389 23.7185L35.564 25.131ZM28.7515 21.0435C25.989 21.0435 23.7515 23.281 23.7515 26.0435C23.7515 28.806 25.989 31.0435 28.7515 31.0435C31.514 31.0435 33.7515 28.806 33.7515 26.0435C33.7515 23.281 31.514 21.0435 28.7515 21.0435ZM28.7515 28.5435C27.3765 28.5435 26.2515 27.4185 26.2515 26.0435C26.2515 24.6685 27.3765 23.5435 28.7515 23.5435C30.1265 23.5435 31.2515 24.6685 31.2515 26.0435C31.2515 27.4185 30.1265 28.5435 28.7515 28.5435Z" fill="#BD0B20"/>
</g>
<defs>
<clipPath id="clip0_11455_2940">
<rect width="30" height="30" fill="white" transform="translate(13.752 11.0435)"/>
</clipPath>
</defs>
</svg>
